<svg xmlns="http://www.w3.org/2000/svg" xmlns:xlink="http://www.w3.org/1999/xlink" version="1.1" x="0px" y="0px" viewBox="0 0 100 125" style="enable-background:new 0 0 100 100;" xml:space="preserve"><g><polygon points="65.8,28.8 50.3,60.8 35,28.8 22.3,67.4 20.1,67.4 20.1,71.7 33,71.7 33,67.6 31,67.6 37.3,50.3 48.7,71.7    51.8,71.7 63.2,50.1 69.6,67.4 67.3,67.4 67.3,71.7 80.5,71.7 80.5,67.4 78.2,67.4  "/><path d="M50,12c-12.1,0-23.5,4.8-32,13.4C9.6,34,5,45.3,5.1,57.2c0,10.4,3.7,20.6,10.4,28.7c0.4,0.5,0.9,0.7,1.5,0.7   c2.4,0,7.2,0,13.2,0c10.1,0,23.1,0.1,33.9,0.1c8.8,0,16.2,0,19.5-0.1c0.6,0,1.1-0.3,1.5-0.8c6.6-8.2,10.1-18.2,10.1-28.7   C95.2,32.3,74.9,12,50,12z M82.5,82.6c-8.6,0.2-35.9,0.1-52.4,0c-5.3,0-9.6,0-12.2,0c-5.7-7.2-8.9-16.2-8.9-25.4   C9,46.3,13.2,36,20.9,28.2C28.7,20.4,39,16,50,16c22.7,0,41.2,18.5,41.2,41.2C91.2,66.5,88.2,75.3,82.5,82.6z"/></g><text x="0" y="115" fill="#000000" font-size="5px" font-weight="bold" font-family="'Helvetica Neue', Helvetica, Arial-Unicode, Arial, Sans-serif">Created by Alexander Gruzdev</text><text x="0" y="120" fill="#000000" font-size="5px" font-weight="bold" font-family="'Helvetica Neue', Helvetica, Arial-Unicode, Arial, Sans-serif">from the Noun Project</text></svg>